<svg xmlns="http://www.w3.org/2000/svg" version="1.1" xmlns:xlink="http://www.w3.org/1999/xlink" xmlns:svgjs="http://svgjs.com/svgjs" width="1440" height="800" preserveAspectRatio="none" viewBox="0 0 1440 800"><g mask="url(&quot;#SvgjsMask2138&quot;)" fill="none"><rect width="1440" height="800" x="0" y="0" fill="url(#SvgjsLinearGradient2139)"></rect><path d="M1677.38 471.8C1493.02 465.93 1283.95 198.72 998.09 183.8 712.24 168.88 761.01-39.46 658.45-50.45" stroke="rgba(51,121,194,0.58)" stroke-width="2"></path><path d="M1671.71 763.92C1524.23 755.22 1472.12 523.91 1151.32 483.92 830.51 443.93 805.51 32.44 630.92-3.57" stroke="rgba(51,121,194,0.58)" stroke-width="2"></path><path d="M1547.46 496.05C1434.49 480.24 1424.7 260.69 1187.2 216.05 949.69 171.41 951.51-118.52 826.93-148.33" stroke="rgba(51,121,194,0.58)" stroke-width="2"></path><path d="M1603.04 145.35C1468.11 179.05 1417.02 547.32 1216.43 545.35 1015.84 543.38 991.48 13.44 829.82-69.02" stroke="rgba(51,121,194,0.58)" stroke-width="2"></path><path d="M1712.77 360.47C1549.4 376.05 1456.21 726.81 1163.83 720.47 871.45 714.13 831.98 47.01 614.89-43.41" stroke="rgba(51,121,194,0.58)" stroke-width="2"></path></g><defs><mask id="SvgjsMask2138"><rect width="1440" height="800" fill="#ffffff"></rect></mask><linearGradient x1="0%" y1="50%" x2="100%" y2="50%" gradientUnits="userSpaceOnUse" id="SvgjsLinearGradient2139"><stop stop-color="#0e2a47" offset="0"></stop><stop stop-color="rgba(41, 5, 5, 0.69)" offset="1"></stop></linearGradient></defs></svg>